<svg width="560" height="562" viewBox="0 0 560 562" fill="none" xmlns="http://www.w3.org/2000/svg">
<path d="M418.8 555.3C419.1 551.5 419.8 541.5 420.3 532.9C420.9 524.3 421.7 515.6 422 513.6C422.6 510.4 422.3 509.6 418.4 505.2C416 502.5 407.6 493 399.7 484.2C391.9 475.3 383.9 466.9 382.1 465.5L378.7 462.9L373.5 465.7C367.3 469.1 367.3 468.7 374.3 485.7C377.1 492.4 380.8 502.5 382.4 508.2C385.5 518.8 389.9 540.9 389.2 541.6C388.3 542.6 378.4 533.8 368.9 523.6C363.5 517.7 355 509.5 350 505.5C345.1 501.5 338.8 495.9 336 493.1C333 490 330.2 488 328.9 488C327.7 488 326.5 487.5 326.3 486.8C326 485.9 322.9 486.1 313.9 487.4C289.9 490.8 260.6 490.5 238.7 486.4L230.5 484.9L225 487.4C222 488.9 218.4 490.5 217 491C215.5 491.6 213.8 493.3 213.3 494.8C212.7 496.3 209.3 499.8 205.6 502.5C202 505.2 192.5 513.8 184.5 521.6C171.8 533.9 163.5 541.1 163.5 539.7C163.5 539.5 164.6 533.9 165.9 527.4C169 512.5 174.7 495 181.5 479.6L186.8 467.7L184.6 466.1C183.3 465.1 180.8 463.6 179 462.6C175.7 460.8 175.6 460.8 172.1 463.5C170.2 464.9 165.1 470.1 160.8 474.8C156.5 479.6 148.2 488.7 142.3 495L131.6 506.6L132.5 521.5C133 529.8 133.7 541.6 134.1 547.9L134.8 559.2L132.4 558C127.3 555.3 122.2 550.5 113.9 540.4C108.5 533.9 104.8 530.3 104.1 530.8C103.5 531.2 98.9 534.2 94 537.6C74.7 550.7 68.9 551.8 66.6 542.6C65.1 536.4 65.2 533 67.6 518.9C69.5 508.2 69.7 504 69.2 488.8L68.6 471.1L60.4 456.3C50.2 437.9 45.1 427.7 36.8 409.1C26.9 386.9 26.4 376.1 35 365.5L38.3 361.5L34.6 350.5C30.2 337.4 25.2 326.2 14.4 305.1C4.99996 286.9 3.59996 281.3 7.89996 279.1C13.2 276.2 27.8 279.8 49.4 289.4C55.2 291.9 60.1 293.8 60.3 293.5C61.3 292.6 50.1 270.4 41 255C22.2 223.1 6.79996 193.2 2.39996 179.7C0.299963 173.2 0.299963 172.8 1.89996 169.2C6.89996 158.4 27 149.6 67.3 140.5C79.9 137.7 82 137 81.9 135.4C81.8 134.3 80.6 124.7 79.2 114C75.8 88.6 74.5 70.6 74.5 47.7C74.5 26.8 76.3 15.6 81.2 6.99998C83.4 2.99998 84.5 2.09998 88.3 1.09998C100.2 -2.00002 124.3 12.2 163.5 45.6C172 52.8 184.6 64.5 191.4 71.5C203.5 83.9 203.8 84.2 205.4 82.2C206.3 81.1 210 78.4 213.7 76.1C219 72.9 222.3 71.7 229.7 70.5C238.3 69 239.7 69 248.5 70.5C256.9 72 259.2 72.9 268 78.1C277.6 83.8 278.3 84.5 285 94L291.9 103.9L297.4 104.2C300.6 104.4 305.9 103.7 309.5 102.8C313.1 101.8 317.6 101.5 319.4 101.5C321.1 101.5 323.126 101.5 323.9 101.5C325.809 101.5 326 101.5 326 101.5C326 101.5 329 101.5 330 102C331.4 102 332.3 102.9 334.5 104C336.7 105.1 338.9 106 339.4 106C340 106 346.3 99.4 353.4 91.2C368.3 74.4 383.2 60.1 402.5 44.4C429 22.8 450.2 8.99998 463.1 4.89998C469.6 2.89998 470.7 2.79998 474.9 3.99998C480.8 5.59998 483.8 10.5 486.7 23.3C488.5 31.5 488.7 34.6 488.1 52.5C487.3 80.1 483.6 115.1 479 137.6L478.3 140.6L492.7 144C524.1 151.3 541.4 157.8 551.9 166.1C558.1 171.1 560.6 175.6 559.5 180.2C557 191.3 539 225.2 516.5 261.5C507.2 276.5 496.7 296.5 497.6 297.5C498 297.8 502 296.4 506.6 294.5C524.7 286.7 540.8 282.1 547 282.9C548.1 283 550 283.8 551.3 284.6C554.8 286.9 553.5 291.2 543.1 311C531.6 333.1 525.4 346.4 522.1 356.4C518.9 366 518.9 366.4 521.9 370.3C529.8 380.7 529.6 390.9 521.2 409.5C513.1 427.4 507.3 438.7 496.4 457.5L486.6 474.5L485.5 487C484.6 496.6 484.6 502.6 485.5 512.5C488.4 544.8 487.8 552.2 482.2 552.8C478.4 553.3 470.8 549.4 459.3 541.3C454.2 537.7 449.5 534.7 448.8 534.6C448.2 534.5 443.9 538.7 439.3 543.9C431.2 553.2 421.4 562 419.4 562C418.7 562 418.5 559.6 418.8 555.3Z" fill="white"/>
</svg>
